<svg xmlns="http://www.w3.org/2000/svg" viewBox="0 0 512 512" width="600" height="600"><path fill="#ffffff" stroke="#e0e0e0" stroke-width="8" d="M386,306.4c-6.8-5-19.1-13.4-36.8-21.7c-9-4.2-18.7-7.9-28-10.6c-4.4-1.3-8.8-2.3-13.2-3.1 c-1.2-2.1-2.6-4.5-4.1-7.1c-13.5-24.1-28.7-51.4-53.3-64.6c-3.1-1.7-6.2-3.1-9.3-4.3c-2.3-4.1-4.7-7.9-6.9-10.9 c-9.9-13.7-18.6-18.1-29.2-18.1c-2.8,0-5.8,0.5-8.8,1.4c-12.7,4-20,13.6-21.6,28.6c-0.2,2.3-0.3,4.9-0.3,7.6 c-0.1,5.2-0.1,11-0.2,16.5c0,0.5,0,1,0,1.5c-4.5,4.7-9.5,10.6-15.1,17.2c-5.8,6.8-12,14.6-18.2,22c-8,9.7-15.6,18.8-22,25.3 c-4.6,4.6-8.2,8.1-10.4,10c-3.1,2.8-5.9,5.2-8.5,7.5c-5.5,4.8-10.4,9.1-15,13.9c-8.9,9.4-15.1,19.3-18.4,29.5 c-3.9,11.8-3.4,24.3,1.4,36c6,14.7,19.2,26.4,36.5,32.3c6,2,12.7,3.1,20,3.1c11.9,0,25.8-2.6,41-7.7c17.5-5.9,37-12.5,57.1-17.5 c26.9-6.7,53-10,77.5-10c31.3,0,51.8,6.7,64.2,10.8c2,0.7,3.9,1.3,5.8,1.9c13.8,4.5,23.3,4.7,30.3,0.7c5.1-2.9,7.6-7.8,7.3-14.7 C408.8,333.1,402.7,318.7,386,306.4z"/></svg>